<?xml version="1.0" encoding="UTF-8"?>
<svg version="1.1" xmlns="http://www.w3.org/2000/svg" width="1024" height="1024">
<path d="M0 0 C337.92 0 675.84 0 1024 0 C1024 337.92 1024 675.84 1024 1024 C686.08 1024 348.16 1024 0 1024 C0 686.08 0 348.16 0 0 Z " fill="#0A1728" transform="translate(0,0)"/>
<path d="M0 0 C7.59 0 15.18 0 23 0 C23 11.22 23 22.44 23 34 C28.94 34 34.88 34 41 34 C41 22.78 41 11.56 41 0 C48.26 0 55.52 0 63 0 C63 11.22 63 22.44 63 34 C66.63 34.33 70.26 34.66 74 35 C77.12123118 35.80320031 80.04058612 36.62805491 83.0625 37.6875 C83.83835449 37.9558667 84.61420898 38.2242334 85.41357422 38.50073242 C96.6732699 42.53249074 105.64743578 48.10691713 111.5703125 58.84765625 C116.73101673 69.80309409 118.15705137 82.1338323 114.02734375 93.76171875 C110.41789458 101.62565173 104.54111072 106.84654831 97 111 C96.01 111 95.02 111 94 111 C94 111.66 94 112.32 94 113 C95.2375 113.04125 96.475 113.0825 97.75 113.125 C106.37798274 114.104834 114.698725 118.59667488 120.53515625 125.00390625 C125.94837177 132.3803146 128.14204268 139.26649266 128.1875 148.3125 C128.20167969 149.58738281 128.21585938 150.86226562 128.23046875 152.17578125 C127.99001075 156.16575384 127.2354171 159.22538569 126 163 C157.76738344 146.12143342 189.34671324 125.81839645 215.6875 101.1640625 C217.79007125 99.19645359 219.93721085 97.30908525 222.125 95.4375 C236.13976028 83.12149855 252.42639216 66.7360784 254.375 47.25 C254.2809693 42.20055122 252.28743243 38.74558316 249 35 C239.52167659 26.55050153 225.04994181 26.29980337 213 25 C220.30927742 20.61443355 229.93858054 21.7833459 238.125 21.75 C239.36765625 21.729375 240.6103125 21.70875 241.890625 21.6875 C254.55951718 21.63460275 267.71269999 23.06571799 277.2578125 32.1484375 C283.3463777 38.71710462 285.56547507 43.62885374 285.3671875 52.62890625 C282.43643522 79.53570639 254.95814869 104.71865309 235.3125 120.875 C233.54495314 122.25422217 231.77393392 123.6290025 230 125 C228.89843556 125.89916042 227.79965325 126.80173602 226.703125 127.70703125 C210.74365388 140.82291002 193.5884149 152.20264732 176 163 C175.23848633 163.47083008 174.47697266 163.94166016 173.69238281 164.42675781 C151.20979778 178.29656397 127.97093897 190.65272289 104.375 202.5 C103.45332031 202.96476746 102.53164063 203.42953491 101.58203125 203.90838623 C91.93123839 208.76583437 82.24325245 213.44894714 72.2890625 217.65625 C71.07843643 218.16810852 71.07843643 218.16810852 69.84335327 218.69030762 C64.26513807 221 64.26513807 221 62 221 C62 227.27 62 233.54 62 240 C54.74 240 47.48 240 40 240 C40 236.7 40 233.4 40 230 C38.66001953 230.54914063 38.66001953 230.54914063 37.29296875 231.109375 C-17.93602024 253.34506464 -78.5867762 272.00962598 -138.5 272.25 C-140.42779297 272.2809375 -140.42779297 272.2809375 -142.39453125 272.3125 C-159.27245111 272.38035093 -178.22165346 269.45453355 -190.8203125 257.234375 C-196.72252585 250.67636016 -197.63186262 244.63194447 -197.37109375 235.9140625 C-195.7442916 218.75558084 -181.77474616 204.46488442 -170 193 C-169.5153125 192.48179687 -169.030625 191.96359375 -168.53125 191.4296875 C-163.5559949 186.19628237 -157.91404366 182.11737217 -152 178 C-151.34 178.33 -150.68 178.66 -150 179 C-151.31677734 180.03833984 -151.31677734 180.03833984 -152.66015625 181.09765625 C-156.01996977 183.90554968 -158.74537193 186.99534563 -161.4375 190.4375 C-162.14592041 191.34024658 -162.14592041 191.34024658 -162.86865234 192.26123047 C-169.7431021 201.30137799 -175.59120654 211.37293802 -175 223 C-173.73974562 229.0912295 -171.72286238 233.17070856 -166.4765625 236.6953125 C-165.53554688 237.16710937 -164.59453125 237.63890625 -163.625 238.125 C-162.25214844 238.84042969 -162.25214844 238.84042969 -160.8515625 239.5703125 C-149.53277227 244.23280399 -137.71007433 244.50496 -125.6875 244.375 C-124.89843262 244.36968262 -124.10936523 244.36436523 -123.29638672 244.35888672 C-86.51895795 244.07011689 -51.56724973 235.02019713 -16.50506592 224.61778259 C-11.02476118 222.99456844 -5.52064905 221.47951479 0 220 C0 213.4 0 206.8 0 200 C-14.52 200 -29.04 200 -44 200 C-44 188.75 -44 188.75 -43 182.875 C-42.814375 181.75867188 -42.62875 180.64234375 -42.4375 179.4921875 C-42.293125 178.66976562 -42.14875 177.84734375 -42 177 C-40.75863281 176.96261719 -39.51726562 176.92523438 -38.23828125 176.88671875 C-36.59632489 176.8210405 -34.95439913 176.7545938 -33.3125 176.6875 C-32.49587891 176.66494141 -31.67925781 176.64238281 -30.83789062 176.61914062 C-26.13035896 176.40949347 -22.81838549 176.0501896 -19 173 C-17.84250444 170.68500887 -17.86707007 169.34607975 -17.85282898 166.76896667 C-17.84567368 165.88154282 -17.83851837 164.99411896 -17.83114624 164.07980347 C-17.82845734 163.10367096 -17.82576843 162.12753845 -17.82299805 161.12182617 C-17.81314125 159.58261757 -17.81314125 159.58261757 -17.80308533 158.01231384 C-17.78332361 154.6058648 -17.77168378 151.19945988 -17.76171875 147.79296875 C-17.75764322 146.63159204 -17.7535677 145.47021534 -17.74936867 144.2736454 C-17.72849643 138.12766318 -17.71419926 131.98170338 -17.70483398 125.83569336 C-17.69376259 119.4799992 -17.65935718 113.12465448 -17.61966228 106.76908398 C-17.59354773 101.88864988 -17.58514676 97.00829972 -17.58155251 92.1278019 C-17.5766738 89.78460643 -17.56502355 87.44141502 -17.54651451 85.09828758 C-17.52223179 81.82069384 -17.52306847 78.54401311 -17.5300293 75.26635742 C-17.51721924 74.29629761 -17.50440918 73.32623779 -17.49121094 72.32678223 C-17.52449227 68.03286281 -17.61303407 65.63995122 -19.87477112 61.89956665 C-22.47118262 59.57884875 -23.75466768 59.35311626 -27.203125 59.29296875 C-28.08645508 59.26485107 -28.96978516 59.2367334 -29.87988281 59.20776367 C-30.99202148 59.20107666 -32.10416016 59.19438965 -33.25 59.1875 C-38.57125 59.0946875 -38.57125 59.0946875 -44 59 C-44 50.75 -44 42.5 -44 34 C-29.48 34 -14.96 34 0 34 C0 22.78 0 11.56 0 0 Z " fill="#FDC540" transform="translate(474,291)"/>
<path d="M0 0 C2.49895507 -0.00217742 4.99746102 -0.02036271 7.49633789 -0.03930664 C21.18177122 -0.08911529 34.28539289 1.07387428 47.52172852 4.81030273 C48.44888672 5.06972656 49.37604492 5.32915039 50.33129883 5.59643555 C75.66872771 12.92302474 99.24286054 25.0412163 118.60375977 43.10717773 C120.65205473 45.01557164 122.75458449 46.82154999 124.89672852 48.62280273 C149.97302441 70.63979053 166.82043639 103.89839133 173.83422852 136.18530273 C174.03830322 136.94085449 174.24237793 137.69640625 174.45263672 138.47485352 C174.96632117 140.90610592 175.21432485 142.72557287 174.83422852 145.18530273 C172.71769274 148.01405754 170.08276713 149.76645457 167.14672852 151.68530273 C166.41260742 152.20866211 165.67848633 152.73202148 164.92211914 153.27124023 C161.58748563 155.59674798 158.86264314 157.38264659 154.83422852 158.18530273 C154.61508789 157.02256836 154.39594727 155.85983398 154.17016602 154.66186523 C145.68742725 111.18038205 123.14977781 74.41205928 86.21313477 49.38061523 C72.75866628 40.55148622 58.81051067 34.51470895 43.39672852 29.93530273 C42.58776123 29.68893066 41.77879395 29.44255859 40.9453125 29.1887207 C27.92512954 25.48257243 14.37003945 24.74160232 0.89672852 24.74780273 C0.18933533 24.74706757 -0.51805786 24.7463324 -1.24688721 24.74557495 C-37.85931628 24.84444439 -71.51845706 38.43645854 -99.16577148 62.18530273 C-100.07198242 62.94456055 -100.97819336 63.70381836 -101.91186523 64.48608398 C-109.40559893 70.98065318 -115.36980183 78.19420983 -121.16577148 86.18530273 C-121.60308594 86.78503906 -122.04040039 87.38477539 -122.4909668 88.00268555 C-132.82540817 102.35050221 -140.14836538 118.24684153 -145.16577148 135.18530273 C-145.3775 135.89332031 -145.58922852 136.60133789 -145.80737305 137.33081055 C-149.10061007 148.95369303 -149.53199116 160.55678707 -149.54077148 172.56030273 C-149.5427655 173.27983124 -149.54475952 173.99935974 -149.54681396 174.74069214 C-149.5426171 188.11589507 -148.11812853 201.01720315 -144.54077148 213.93530273 C-144.28279785 214.86922852 -144.02482422 215.8031543 -143.7590332 216.76538086 C-137.02541219 240.14038147 -124.47884937 260.30573724 -108.16577148 278.18530273 C-112.83221159 281.2962628 -117.67761384 281.4901361 -123.16577148 282.18530273 C-124.38780273 282.43538086 -125.60983398 282.68545898 -126.86889648 282.94311523 C-131.20772799 283.50555636 -133.98786103 283.54689351 -138.16577148 282.18530273 C-143.59250749 277.36519493 -146.79029319 270.49312722 -150.16577148 264.18530273 C-150.99340988 262.74526907 -151.82522088 261.30762275 -152.66186523 259.87280273 C-174.47204471 221.63159553 -180.89630423 172.63374742 -169.33618164 130.13549805 C-159.51658787 96.36035328 -140.9257054 63.49239249 -113.16577148 41.18530273 C-112.25827148 40.44022461 -111.35077148 39.69514648 -110.41577148 38.92749023 C-78.32816959 13.33762772 -40.90412337 -0.00397629 0 0 Z " fill="#FCC641" transform="translate(506.165771484375,235.814697265625)"/>
<path d="M0 0 C1.77462088 3.54924176 -0.32839141 7.35467334 -1.4375 11 C-1.70973389 11.89557617 -1.98196777 12.79115234 -2.26245117 13.71386719 C-10.72250474 40.64365342 -25.506154 63.7563907 -45 84 C-45.5775 84.6290625 -46.155 85.258125 -46.75 85.90625 C-76.07576632 116.9915623 -121.70792084 134.88583278 -163.8515625 136.28515625 C-177.80267799 136.55121757 -191.33984897 135.91630877 -205 133 C-206.17151611 132.75056641 -206.17151611 132.75056641 -207.36669922 132.49609375 C-223.57048815 128.90485795 -239.4310433 122.97458682 -254 115 C-249.26788076 111.84525384 -243.80030917 110.58878889 -238.39575195 108.94897461 C-236.33249712 108.31860952 -234.27693393 107.66652577 -232.22070312 107.01367188 C-225.50217713 104.93275908 -219.99253 103.2773081 -213 105 C-211.16833526 105.38715471 -209.33626803 105.77240782 -207.50390625 106.15625 C-204.52614267 106.82412266 -201.550969 107.50263953 -198.57617188 108.18359375 C-162.05494878 116.36396049 -122.01658888 107.95687069 -90.46166992 88.2590332 C-75.03198062 78.35403222 -61.07684825 66.68326396 -50 52 C-49.39671875 51.20078125 -48.7934375 50.4015625 -48.171875 49.578125 C-43.97967974 43.79969369 -40.45892512 37.72080737 -36.9921875 31.4921875 C-36.50045044 30.64321899 -36.50045044 30.64321899 -35.9987793 29.77709961 C-34.97328807 28.00216693 -34.97328807 28.00216693 -34.10473633 26.09985352 C-30.35283594 18.89560034 -23.62887043 15.32380168 -16.9375 11.1875 C-15.15561151 10.06274476 -13.37677672 8.93327037 -11.59803772 7.80354309 C-9.99054958 6.78628744 -8.37619644 5.77990377 -6.76147461 4.77416992 C-4.42002136 3.26985194 -2.19656654 1.7060296 0 0 Z " fill="#FCC642" transform="translate(678,452)"/>
<path d="M0 0 C8.55632358 6.28403985 14.4261473 14.57290616 16.7421875 25.0390625 C18.69113544 41.38636049 16.87049214 54.9257089 6.6015625 68.22265625 C0.49320102 75.00144765 -8.64884747 79.7299993 -17.77490234 80.38671875 C-30.85796649 81.00787313 -41.43812129 79.99210805 -51.8125 71.2109375 C-60.79618014 62.66963554 -65.86316781 52.36324529 -66.41601562 39.86352539 C-66.55365543 25.92280313 -62.55272542 14.56211375 -53.03125 4.25390625 C-38.4935765 -9.59859001 -16.79266556 -10.39951877 0 0 Z " fill="#FBC743" transform="translate(649.875,682.75)"/>
<path d="M0 0 C8.96358932 6.49981793 14.85319245 15.3523971 17.1875 26.25 C18.30703549 40.1106214 18.23889601 54.19004991 8.94140625 65.375 C2.66792266 72.08161943 -3.00439039 76.43585668 -11.8125 79.25 C-12.8025 79.58 -13.7925 79.91 -14.8125 80.25 C-29.95547678 81.09037865 -40.6236014 79.39276733 -52.71875 69.7265625 C-61.482104 61.84723105 -65.05477991 50.83354793 -66.0625 39.41796875 C-66.57837412 27.11759516 -62.57961471 15.7843932 -54.8125 6.25 C-39.78523011 -8.75201398 -18.12363379 -11.20481413 0 0 Z " fill="#FBC743" transform="translate(554.8125,682.75)"/>
<path d="M0 0 C44.71428571 0 44.71428571 0 54.4375 6.1875 C58.77919933 10.95277975 61.16396585 16.07704098 61.5 22.5625 C61.20720135 28.54395813 58.69964599 33.11150446 54.75 37.5 C54.1725 37.995 53.595 38.49 53 39 C53.54269531 39.43570313 54.08539062 39.87140625 54.64453125 40.3203125 C55.35996094 40.91585937 56.07539062 41.51140625 56.8125 42.125 C57.52019531 42.70507812 58.22789062 43.28515625 58.95703125 43.8828125 C63.45446986 48.54363798 64.44758782 53.02002284 64.5 59.375 C64.35769709 65.97268057 63.51055871 70.1517524 59 75 C58.175 75.9075 57.35 76.815 56.5 77.75 C39.64996826 88.58216326 18.89158506 84 0 84 C0 56.28 0 28.56 0 0 Z " fill="#FBC642" transform="translate(760,678)"/>
<path d="M0 0 C43.64705882 0 43.64705882 0 53.375 6.125 C60.02671724 13.41021411 61.69813857 20.22748113 61.52124023 29.87524414 C61.1920958 36.58034354 60.03432515 40.94455426 55.31640625 45.6953125 C53.59703656 47.22610616 51.84687889 48.62699135 50 50 C48.66644465 50.9997039 47.33308515 51.99966917 46 53 C48.22168523 56.48843892 50.44546136 59.97553492 52.67114258 63.46142578 C53.42724579 64.646284 54.1827871 65.83150099 54.93774414 67.01708984 C56.02601233 68.72589329 57.11632693 70.43337575 58.20703125 72.140625 C59.18893433 73.68024902 59.18893433 73.68024902 60.19067383 75.25097656 C61.92380914 77.96122925 61.92380914 77.96122925 63.73706055 80.24121094 C65 82 65 82 65 84 C48.30929114 85.50066313 48.30929114 85.50066313 43.6015625 82.44140625 C41.75047117 79.73054407 40.40541048 76.97067807 39 74 C37.14533493 70.59429071 35.17384493 67.26757631 33.1875 63.9375 C32.72545166 63.07987061 32.26340332 62.22224121 31.78735352 61.33862305 C31.07857056 60.13266479 31.07857056 60.13266479 30.35546875 58.90234375 C29.94965576 58.17523193 29.54384277 57.44812012 29.12573242 56.69897461 C26.14286966 53.99938285 26.14286966 53.99938285 17 54 C17 63.9 17 73.8 17 84 C11.39 84 5.78 84 0 84 C0 56.28 0 28.56 0 0 Z " fill="#FCC843" transform="translate(682,678)"/>
<path d="M0 0 C46.03550839 0 46.03550839 0 55.33984375 9.11328125 C61.16249612 15.73055441 61.83866963 22.4578703 61.44921875 31.07421875 C60.66040026 37.96780645 58.21904586 43.36822368 52.9375 47.9375 C51.4834375 48.9584375 51.4834375 48.9584375 50 50 C48.6640901 50.99655533 47.33023739 51.99588533 46 53 C54.59474646 66.87682481 54.59474646 66.87682481 63.890625 80.28515625 C65 82 65 82 65 84 C48.30929114 85.50066313 48.30929114 85.50066313 43.6015625 82.44140625 C41.75047117 79.73054407 40.40541048 76.97067807 39 74 C37.14533493 70.59429071 35.17384493 67.26757631 33.1875 63.9375 C32.72545166 63.07987061 32.26340332 62.22224121 31.78735352 61.33862305 C31.07857056 60.13266479 31.07857056 60.13266479 30.35546875 58.90234375 C29.94965576 58.17523193 29.54384277 57.44812012 29.12573242 56.69897461 C26.14286966 53.99938285 26.14286966 53.99938285 17 54 C17 63.57 17 73.14 17 83 C11.39 83 5.78 83 0 83 C0 55.61 0 28.22 0 0 Z " fill="#FDC842" transform="translate(187,678)"/>
<path d="M0 0 C43.42857143 0 43.42857143 0 52.875 5.75 C59.79387 13.07586236 62.50299402 20.8184875 62.31640625 30.83203125 C61.54805661 38.5250134 58.76660998 45.73483436 53 51 C46.55165792 54.90518407 40.7228416 57.14659898 33.13671875 57.09765625 C31.93728638 57.09390991 31.93728638 57.09390991 30.71362305 57.09008789 C29.71500244 57.08098389 28.71638184 57.07187988 27.6875 57.0625 C22.8921875 57.0315625 22.8921875 57.0315625 18 57 C18 65.91 18 74.82 18 84 C12.06 84 6.12 84 0 84 C0 56.28 0 28.56 0 0 Z " fill="#FCC540" transform="translate(346,678)"/>
<path d="M0 0 C8.23767095 5.09593148 14.12597192 12.05743733 17.140625 21.32421875 C18.29934948 32.12041125 17.75515341 41.26340814 11.140625 50.32421875 C4.63248369 57.98011366 -2.78206387 61.61870605 -12.6953125 62.76953125 C-22.95144131 63.39883983 -30.83921679 61.01141997 -39.01171875 54.6484375 C-45.23899388 48.92145086 -48.52304374 41.94637118 -49.1328125 33.56640625 C-49.50807281 22.19263117 -48.06536031 14.71281353 -40.234375 6.01171875 C-29.50358222 -3.80327354 -13.30415225 -6.44844114 0 0 Z " fill="#FDC540" transform="translate(706.859375,230.67578125)"/>
<path d="M0 0 C6.97160218 3.68028785 13.22563396 8.96905099 17 16 C15.69467452 19.91597644 14.02734726 20.53830346 10.5625 22.6875 C9.57378906 23.31011719 8.58507812 23.93273437 7.56640625 24.57421875 C5 26 5 26 3 26 C1.948125 24.39125 1.948125 24.39125 0.875 22.75 C-2.09652726 18.52820479 -4.9748557 16.3207611 -10 15 C-16.19371516 14.31338243 -21.82572845 14.00822701 -27.5625 16.625 C-35.17327512 24.04062704 -38.27800715 30.18789371 -38.5625 40.75 C-38.55348925 48.49473619 -36.64572064 54.67045921 -32 61 C-27.35727811 65.54477417 -22.71722033 67.15668734 -16.3125 67.3125 C-9.82351733 67.24196758 -5.05664733 66.06412079 -0.40234375 61.3984375 C0.79871409 59.98660906 1.90977025 58.4990659 3 57 C6.99012371 57.55989303 9.5255052 58.75669768 12.8125 61.0625 C13.60269531 61.61035156 14.39289063 62.15820312 15.20703125 62.72265625 C15.79871094 63.14417969 16.39039063 63.56570313 17 64 C15.69078692 69.96419294 12.7264409 73.36552993 8 77 C-3.67078544 83.88514591 -16.09156792 86.31347218 -29.4296875 83.19921875 C-40.62541166 78.96810741 -49.01583391 70.82370062 -54 60 C-58.37106977 49.59585674 -59.01892418 35.73356745 -55.375 25 C-54.63380507 23.31028288 -53.84185851 21.64188554 -53 20 C-52.56429687 19.12859375 -52.12859375 18.2571875 -51.6796875 17.359375 C-41.3917061 -1.41759651 -19.60485074 -7.45461848 0 0 Z " fill="#FBC743" transform="translate(156,679)"/>
<path d="M0 0 C46.82921975 0 46.82921975 0 58.47265625 11.21484375 C61.95735724 15.28775514 62.40445204 19.66893892 62.25390625 24.91796875 C61.55146575 30.67798084 59.21548391 36.00069475 55 40 C41.67214411 48.32990993 27.20897338 49.17615847 11.9375 49.0625 C7.998125 49.041875 4.05875 49.02125 0 49 C0 32.83 0 16.66 0 0 Z " fill="#0B1726" transform="translate(496,418)"/>
<path d="M0 0 C6.27 0 12.54 0 19 0 C23.88830095 8.53512864 28.64647051 17.0856854 33.0625 25.875 C33.45622803 26.65343262 33.84995605 27.43186523 34.25561523 28.23388672 C37 33.75210639 37 33.75210639 37 36 C37.66 36 38.32 36 39 36 C39.40424194 34.69687866 39.40424194 34.69687866 39.81665039 33.36743164 C40.96473222 30.10036073 42.32929249 27.1864058 43.93359375 24.12109375 C44.7834082 22.49204102 44.7834082 22.49204102 45.65039062 20.83007812 C46.24013672 19.71052734 46.82988281 18.59097656 47.4375 17.4375 C48.02337891 16.31408203 48.60925781 15.19066406 49.21289062 14.03320312 C50.79369223 11.01335171 52.37384765 7.9956829 54 5 C54.46647949 4.06655762 54.93295898 3.13311523 55.41357422 2.17138672 C57 0 57 0 59.0847168 -0.56762695 C60.25514526 -0.52835083 60.25514526 -0.52835083 61.44921875 -0.48828125 C62.29677734 -0.47216797 63.14433594 -0.45605469 64.01757812 -0.43945312 C65.33918945 -0.37661133 65.33918945 -0.37661133 66.6875 -0.3125 C67.58017578 -0.28994141 68.47285156 -0.26738281 69.39257812 -0.24414062 C71.59674272 -0.18520574 73.79752672 -0.10300818 76 0 C73.89086485 5.59351576 70.97145116 10.67166769 68.06500244 15.88259888 C67.04692744 17.71553677 66.04208067 19.5552923 65.03857422 21.39624023 C62.14789101 26.65998656 59.28990229 31.82665108 55.59765625 36.5859375 C44.85528661 50.71136721 46.58036336 66.99983667 47 84 C41.06 84 35.12 84 29 84 C29.06574219 80.61427734 29.06574219 80.61427734 29.1328125 77.16015625 C29.45720058 54.72293532 29.45720058 54.72293532 19.55908203 35.16601562 C16.3600031 30.72157023 13.83816647 25.84606538 11.1875 21.0625 C10.64899414 20.11415283 10.11048828 19.16580566 9.55566406 18.1887207 C6.16947048 12.21564737 3.02361882 6.16460546 0 0 Z " fill="#FBC743" transform="translate(258,678)"/>
<path d="M0 0 C22.11 0 44.22 0 67 0 C67 5.28 67 10.56 67 16 C58.75 16 50.5 16 42 16 C42 38.11 42 60.22 42 83 C36.39 83 30.78 83 25 83 C25 60.89 25 38.78 25 16 C16.75 16 8.5 16 0 16 C0 10.72 0 5.44 0 0 Z " fill="#FDC943" transform="translate(871,678)"/>
<path d="M0 0 C22.11 0 44.22 0 67 0 C67 5.28 67 10.56 67 16 C59.08 16 51.16 16 43 16 C43 38.11 43 60.22 43 83 C37.39 83 31.78 83 26 83 C26 60.89 26 38.78 26 16 C17.42 16 8.84 16 0 16 C0 10.72 0 5.44 0 0 Z " fill="#FDC842" transform="translate(416,678)"/>
<path d="M0 0 C6.08679853 3.73960171 9.64994835 9.72355418 11.4375 16.5 C12.21573001 25.65777636 12.76811128 35.57090133 7.4375 43.5 C2.89102449 48.5685134 -1.70478065 52.07520632 -8.61328125 52.8359375 C-17.44266495 52.94167862 -22.87231795 52.0224465 -29.3125 45.875 C-35.68049301 37.17567396 -36.64537399 28.06657045 -35.5625 17.5 C-33.89233761 9.28191618 -29.32412681 4.26925059 -22.5625 -0.5 C-16.02206067 -2.68014644 -6.4054931 -2.82888509 0 0 Z " fill="#0B1726" transform="translate(637.5625,694.5)"/>
<path d="M0 0 C6.18933998 2.69361991 10.04847887 8.01376405 12.6015625 14.11328125 C14.90312412 22.89915116 14.95931406 34.39098514 10.45703125 42.37890625 C6.63936224 47.78480449 3.0314094 51.65447919 -3.54296875 53.37890625 C-11.80412416 54.40862534 -18.82015173 53.54662325 -25.54296875 48.37890625 C-32.30391199 40.74829811 -34.02423477 32.93180957 -33.85546875 22.921875 C-33.18665299 15.33917631 -30.21481675 9.56588378 -25.30078125 3.8515625 C-18.20227772 -2.09540601 -8.70817014 -2.12688026 0 0 Z " fill="#0A1626" transform="translate(540.54296875,693.62109375)"/>
<path d="M0 0 C37.73480769 0 37.73480769 0 48.5625 8.5 C52.74233601 12.78701129 53.31024011 15.83516234 53.375 21.8125 C53.26106102 27.91456517 52.97114995 31.33389881 49 36 C36.61073499 47.04988501 14.65931813 45 0 45 C0 30.15 0 15.3 0 0 Z " fill="#0B1626" transform="translate(496,351)"/>
<path d="M0 0 C5.61 0 11.22 0 17 0 C17 27.39 17 54.78 17 83 C11.39 83 5.78 83 0 83 C0 55.61 0 28.22 0 0 Z " fill="#FDC843" transform="translate(840,678)"/>
<path d="M0 0 C2.84625 -0.0825 5.6925 -0.165 8.625 -0.25 C9.51010254 -0.28641602 10.39520508 -0.32283203 11.30712891 -0.36035156 C16.67714356 -0.43528762 19.81539696 0.31754932 24 4 C26.73698187 8.00263823 26.65840987 12.31797424 26 17 C23.75335196 21.49329608 21.53465003 23.8972389 17 26 C14.04788657 26.35074615 11.15476919 26.28374957 8.1875 26.1875 C4.1346875 26.0946875 4.1346875 26.0946875 0 26 C0 17.42 0 8.84 0 0 Z " fill="#0A1524" transform="translate(364,694)"/>
<path d="M0 0 C3.196875 -0.0825 6.39375 -0.165 9.6875 -0.25 C10.68612061 -0.28641602 11.68474121 -0.32283203 12.71362305 -0.36035156 C16.98432725 -0.41370847 19.35767745 -0.39899373 23.0625 1.90234375 C26.09062474 5.18077719 26.90370611 6.94076721 27.3125 11.4375 C26.97426877 15.29333597 26.40978135 17.00854728 24 20 C18.54270243 23.91805979 13.80893347 24.14246973 7.25 24.0625 C4.8575 24.041875 2.465 24.02125 0 24 C0 16.08 0 8.16 0 0 Z " fill="#0D1624" transform="translate(699,694)"/>
<path d="M0 0 C3.031875 -0.061875 6.06375 -0.12375 9.1875 -0.1875 C10.60712036 -0.22846802 10.60712036 -0.22846802 12.05541992 -0.27026367 C16.84936401 -0.3175874 20.15522761 -0.20273273 24 3 C26.97233305 7.45849958 26.74215102 11.77433867 26 17 C22.98005503 21.35227363 20.01072335 22.65868608 15 24 C12.32306285 24.13519885 9.79039849 24.19162022 7.125 24.125 C4.77375 24.08375 2.4225 24.0425 0 24 C0 16.08 0 8.16 0 0 Z " fill="#0C1624" transform="translate(204,694)"/>
<path d="M0 0 C3.54249117 -0.10825949 7.08165249 -0.18744405 10.625 -0.25 C11.62402344 -0.28351562 12.62304688 -0.31703125 13.65234375 -0.3515625 C19.76768171 -0.43256035 23.37581308 -0.14794175 28 4 C29.60331444 7.20662888 29.48652213 10.52103353 29 14 C26.28115826 18.56377006 26.28115826 18.56377006 23.17089844 19.62280273 C20.74303192 20.04464864 18.48000763 20.11268297 16.015625 20.09765625 C15.08105469 20.09443359 14.14648438 20.09121094 13.18359375 20.08789062 C11.73146484 20.07532227 11.73146484 20.07532227 10.25 20.0625 C9.26644531 20.05798828 8.28289063 20.05347656 7.26953125 20.04882812 C4.84632806 20.037065 2.42315623 20.01913018 0 20 C0 13.4 0 6.8 0 0 Z " fill="#0A1423" transform="translate(777,726)"/>
<path d="M0 0 C3.39668836 -0.1081174 6.78992439 -0.18737188 10.1875 -0.25 C11.14720703 -0.28351562 12.10691406 -0.31703125 13.09570312 -0.3515625 C17.4990806 -0.4125089 20.24021206 -0.4276764 24.13671875 1.765625 C26.08176156 4.09804531 26.68338837 5.01051565 26.625 8 C26.63789062 8.66 26.65078125 9.32 26.6640625 10 C25.55210156 13.3489647 24.06827527 14.2729011 21 16 C17.38079231 16.47840102 13.82990452 16.37720284 10.1875 16.25 C9.20845703 16.23195313 8.22941406 16.21390625 7.22070312 16.1953125 C4.81337997 16.14834034 2.40656257 16.07660146 0 16 C0 10.72 0 5.44 0 0 Z " fill="#0A1322" transform="translate(777,694)"/>
<path d="M0 0 C12.21 0 24.42 0 37 0 C37 0.33 37 0.66 37 1 C25.45 1 13.9 1 2 1 C2 27.73 2 54.46 2 82 C6.62 82 11.24 82 16 82 C16 73.75 16 65.5 16 57 C16.33 57 16.66 57 17 57 C17.33 65.91 17.66 74.82 18 84 C12.06 84 6.12 84 0 84 C0 56.28 0 28.56 0 0 Z " fill="#DBC655" transform="translate(346,678)"/>
<path d="M0 0 C0.66 0 1.32 0 2 0 C2 11.22 2 22.44 2 34 C-12.52 34 -27.04 34 -42 34 C-42 42.25 -42 50.5 -42 59 C-42.33 59 -42.66 59 -43 59 C-43.02886537 54.68751391 -43.04675255 50.37505238 -43.0625 46.0625 C-43.07087891 44.83080078 -43.07925781 43.59910156 -43.08789062 42.33007812 C-43.09111328 41.16025391 -43.09433594 39.99042969 -43.09765625 38.78515625 C-43.10289307 37.70113525 -43.10812988 36.61711426 -43.11352539 35.50024414 C-43 33 -43 33 -42 32 C-38.89748799 31.91125865 -35.8173188 31.88481545 -32.71484375 31.90234375 C-31.78402481 31.9037587 -30.85320587 31.90517365 -29.8941803 31.90663147 C-26.90858809 31.91224828 -23.92306971 31.9248036 -20.9375 31.9375 C-18.91862087 31.94251284 -16.89974057 31.94707612 -14.88085938 31.95117188 C-9.92052129 31.96137413 -4.9603437 31.98094618 0 32 C0 21.44 0 10.88 0 0 Z " fill="#040511" transform="translate(472,291)"/>
<path d="M0 0 C7.26 0 14.52 0 22 0 C22 11.22 22 22.44 22 34 C23.65 34 25.3 34 27 34 C27 34.33 27 34.66 27 35 C25.00045254 35.04254356 22.99958364 35.04080783 21 35 C20 34 20 34 19.88647461 30.94897461 C19.88663366 29.60008729 19.89232388 28.25119386 19.90234375 26.90234375 C19.9037587 26.19348526 19.90517365 25.48462677 19.90663147 24.75428772 C19.91224557 22.48198288 19.92480037 20.20977525 19.9375 17.9375 C19.94251319 16.40039204 19.94707641 14.86328255 19.95117188 13.32617188 C19.9613703 9.55071333 19.98094268 5.77546596 20 2 C13.73 2 7.46 2 1 2 C1 12.89 1 23.78 1 35 C-5.27 35 -11.54 35 -18 35 C-18 34.67 -18 34.34 -18 34 C-12.06 34 -6.12 34 0 34 C0 22.78 0 11.56 0 0 Z " fill="#F3D85C" transform="translate(515,291)"/>
<path d="M0 0 C5.61 0 11.22 0 17 0 C17 1.98 17 3.96 17 6 C14.5433053 7.00419637 12.08481647 8.00350501 9.625 9 C8.92632812 9.28617187 8.22765625 9.57234375 7.5078125 9.8671875 C2.2265625 12 2.2265625 12 0 12 C0 8.04 0 4.08 0 0 Z " fill="#09111F" transform="translate(496,492)"/>
<path d="M0 0 C0.33 0 0.66 0 1 0 C1 10.56 1 21.12 1 32 C5.95 32 10.9 32 16 32 C16 21.44 16 10.88 16 0 C16.66 0 17.32 0 18 0 C18 11.22 18 22.44 18 34 C12.06 34 6.12 34 0 34 C0 22.78 0 11.56 0 0 Z " fill="#030310" transform="translate(497,291)"/>
<path d="M0 0 C14.52 0 29.04 0 44 0 C44 0.33 44 0.66 44 1 C30.14 1 16.28 1 2 1 C2 8.26 2 15.52 2 23 C7.0856689 22.9212012 7.0856689 22.9212012 12.17089844 22.81982422 C16.28429104 22.78770453 18.22603072 23.11301536 22 25 C14.74 25 7.48 25 0 25 C0 16.75 0 8.5 0 0 Z " fill="#EFD65C" transform="translate(430,325)"/>
<path d="M0 0 C1.81274414 0.00676758 1.81274414 0.00676758 3.66210938 0.01367188 C6.62895789 0.02539855 9.5957027 0.04181104 12.5625 0.0625 C12.5625 0.3925 12.5625 0.7225 12.5625 1.0625 C7.9425 1.3925 3.3225 1.7225 -1.4375 2.0625 C-1.4375 2.7225 -1.4375 3.3825 -1.4375 4.0625 C-0.79683594 4.28164063 -0.15617188 4.50078125 0.50390625 4.7265625 C6.30508845 6.85337445 11.56926905 9.17781383 15.5625 14.0625 C16.24609375 16.25 16.24609375 16.25 16.5625 18.0625 C15.9025 17.340625 15.2425 16.61875 14.5625 15.875 C3.92987162 5.42007572 -10.31961469 4.58536834 -24.4375 3.0625 C-17.24224459 -1.25465325 -8.05352078 -0.05711717 0 0 Z " fill="#EED15A" transform="translate(711.4375,312.9375)"/>
<path d="M0 0 C7.59 0 15.18 0 23 0 C23 11.22 23 22.44 23 34 C22.34 34 21.68 34 21 34 C21 23.44 21 12.88 21 2 C14.4 2 7.8 2 1 2 C0.67 1.34 0.34 0.68 0 0 Z " fill="#E6C653" transform="translate(474,291)"/>
<path d="M0 0 C3.96 0 7.92 0 12 0 C12 0.33 12 0.66 12 1 C8.7 1 5.4 1 2 1 C2 5.29 2 9.58 2 14 C9.92 14 17.84 14 26 14 C26.33 14.66 26.66 15.32 27 16 C18.09 16 9.18 16 0 16 C0 10.72 0 5.44 0 0 Z " fill="#ECD154" transform="translate(416,678)"/>
<path d="M0 0 C4.15289097 3.67371124 7.23378258 8.22366459 10 13 C10 13.66 10 14.32 10 15 C6.93460135 15.18951925 3.88092409 15.32783349 0.8125 15.4375 C-0.05181641 15.49615234 -0.91613281 15.55480469 -1.80664062 15.61523438 C-8.1457553 15.78524894 -8.1457553 15.78524894 -10.72900391 13.41064453 C-12.11328125 11.47265625 -12.11328125 11.47265625 -14 8 C-13.67 7.34 -13.34 6.68 -13 6 C-12.51015625 6.97195313 -12.0203125 7.94390625 -11.515625 8.9453125 C-9.22492396 12.37756003 -9.22492396 12.37756003 -5.109375 12.8046875 C-3.65702092 12.85750038 -2.20330493 12.88013535 -0.75 12.875 C-0.00492188 12.895625 0.74015625 12.91625 1.5078125 12.9375 C3.33805864 12.98442939 5.16915725 12.99574223 7 13 C6.4946875 12.22914063 5.989375 11.45828125 5.46875 10.6640625 C4.8190625 9.66117188 4.169375 8.65828125 3.5 7.625 C2.8503125 6.62726562 2.200625 5.62953125 1.53125 4.6015625 C0 2 0 2 0 0 Z " fill="#D9C45F" transform="translate(242,747)"/>
<path d="M0 0 C3.38115591 2.61271138 4.32792863 5.93462713 5 10 C5.21891516 13.48521304 5.19033143 16.94729402 5.125 20.4375 C5.11597656 21.35982422 5.10695313 22.28214844 5.09765625 23.23242188 C5.0742766 25.48855809 5.04150916 27.74413684 5 30 C5.77085937 29.55527344 6.54171875 29.11054688 7.3359375 28.65234375 C8.33882812 28.08644531 9.34171875 27.52054687 10.375 26.9375 C11.37273438 26.36902344 12.37046875 25.80054688 13.3984375 25.21484375 C14.25695312 24.81394531 15.11546875 24.41304688 16 24 C16.66 24.33 17.32 24.66 18 25 C15.54732365 26.53068488 13.08866106 28.04968623 10.625 29.5625 C9.57699219 30.21895508 9.57699219 30.21895508 8.5078125 30.88867188 C6.70814097 31.98750978 4.85677657 33.00067867 3 34 C2.34 33.67 1.68 33.34 1 33 C1.48533203 31.49179687 1.48533203 31.49179687 1.98046875 29.953125 C4.79295533 20.05595737 3.34048412 9.56412419 0 0 Z " fill="#110D0B" transform="translate(598,421)"/>
<path d="M0 0 C1.62418745 -0.08090971 3.24951745 -0.13914995 4.875 -0.1875 C5.77992188 -0.22230469 6.68484375 -0.25710938 7.6171875 -0.29296875 C8.79667969 -0.14794922 8.79667969 -0.14794922 10 0 C10.66 0.99 11.32 1.98 12 3 C9.03 3 6.06 3 3 3 C3 10.92 3 18.84 3 27 C2.67 27 2.34 27 2 27 C1.67 20.73 1.34 14.46 1 8 C0.67 8 0.34 8 0 8 C0 5.36 0 2.72 0 0 Z " fill="#1C1E23" transform="translate(699,732)"/>
<path d="M0 0 C0.33 0.66 0.66 1.32 1 2 C0.01712992 4.00847365 -0.98377342 6.00819591 -2 8 C-2 8.99 -2 9.98 -2 11 C-2.66 11 -3.32 11 -4 11 C-3.67 11.99 -3.34 12.98 -3 14 C-3.65219604 15.34047102 -4.32060994 16.67310461 -5 18 C-5.82940242 24.43056162 -4.91260046 29.28682218 -2 35 C-1.32723284 36.6642135 -0.65793165 38.32986582 0 40 C-4.5651935 35.79521652 -6.6826137 32.86315856 -7.37109375 26.65234375 C-7.55443103 16.39624088 -5.71521392 8.57282089 0 0 Z " fill="#F0DA64" transform="translate(284,508)"/>
<path d="M0 0 C0.66 0.33 1.32 0.66 2 1 C0.7934375 1.8971875 0.7934375 1.8971875 -0.4375 2.8125 C-5.33987415 6.85666476 -9.0850542 12.03236877 -13 17 C-13 16.01 -13 15.02 -13 14 C-14.32 14.99 -15.64 15.98 -17 17 C-17.66 16.67 -18.32 16.34 -19 16 C-13.23253884 9.78634557 -6.96639689 4.81500962 0 0 Z " fill="#DCCB6E" transform="translate(322,469)"/>
<path d="M0 0 C1.81274414 0.00676758 1.81274414 0.00676758 3.66210938 0.01367188 C6.62895789 0.02539855 9.5957027 0.04181104 12.5625 0.0625 C12.5625 0.3925 12.5625 0.7225 12.5625 1.0625 C11.63183716 1.092229 11.63183716 1.092229 10.68237305 1.12255859 C7.87115463 1.21781845 5.06067834 1.32749302 2.25 1.4375 C0.78530273 1.48390625 0.78530273 1.48390625 -0.70898438 1.53125 C-2.11567383 1.58925781 -2.11567383 1.58925781 -3.55078125 1.6484375 C-4.41485596 1.6798584 -5.27893066 1.7112793 -6.16918945 1.74365234 C-8.71492445 1.93438037 -8.71492445 1.93438037 -11.4375 4.0625 C-14.57421875 4.0390625 -14.57421875 4.0390625 -18.125 3.6875 C-19.30449219 3.57664062 -20.48398437 3.46578125 -21.69921875 3.3515625 C-22.60285156 3.25617188 -23.50648438 3.16078125 -24.4375 3.0625 C-17.24224459 -1.25465325 -8.05352078 -0.05711717 0 0 Z " fill="#EBD96C" transform="translate(711.4375,312.9375)"/>
<path d="M0 0 C0 3 0 3 -1.3125 4.38671875 C-2.875 5.59114583 -4.4375 6.79557292 -6 8 C-5.67 8.99 -5.34 9.98 -5 11 C-5.9375 13.6875 -5.9375 13.6875 -7 16 C-9.52588702 13.63707344 -10.88820837 12.33537489 -12 9 C-11.38511719 8.60167969 -10.77023438 8.20335937 -10.13671875 7.79296875 C-9.32847656 7.26316406 -8.52023438 6.73335937 -7.6875 6.1875 C-6.88699219 5.66542969 -6.08648437 5.14335938 -5.26171875 4.60546875 C-3.2762598 3.19610151 -1.6508148 1.77903343 0 0 Z " fill="#0B0E16" transform="translate(244,721)"/>
<path d="M0 0 C0 4.32869872 -2.28849366 6.83223057 -5 10 C-6.96485639 11.86185988 -8.98904048 13.61580479 -11.0625 15.35546875 C-13.52285277 17.44379237 -15.75464579 19.68447847 -18 22 C-18.66 21.67 -19.32 21.34 -20 21 C-19.57178955 20.57702637 -19.1435791 20.15405273 -18.70239258 19.71826172 C-16.73638357 17.77322701 -14.77442705 15.82415171 -12.8125 13.875 C-12.13896484 13.20984375 -11.46542969 12.5446875 -10.77148438 11.859375 C-6.95260919 8.05912847 -3.37156902 4.20300449 0 0 Z " fill="#FEE768" transform="translate(714,368)"/>
<path d="M0 0 C0.99 0.66 1.98 1.32 3 2 C3 2.66 3 3.32 3 4 C-3.27 4 -9.54 4 -16 4 C-16 3.01 -16 2.02 -16 1 C-10.72 1.33 -5.44 1.66 0 2 C0 1.34 0 0.68 0 0 Z " fill="#CBB75B" transform="translate(744,758)"/>
<path d="M0 0 C0.69921875 1.73828125 0.69921875 1.73828125 1 4 C-0.29296875 6.10546875 -0.29296875 6.10546875 -2.1875 8.1875 C-3.10595703 9.22970703 -3.10595703 9.22970703 -4.04296875 10.29296875 C-6.08714076 12.076009 -7.35111359 12.60648472 -10 13 C-3.84965831 3.40546697 -3.84965831 3.40546697 0 0 Z " fill="#11141B" transform="translate(316,477)"/>
<path d="M0 0 C0.66 0.33 1.32 0.66 2 1 C0.92492371 2.29854721 -0.16043736 3.58858361 -1.25 4.875 C-1.85328125 5.59429687 -2.4565625 6.31359375 -3.078125 7.0546875 C-4.97087634 8.97052118 -6.53657727 9.96449045 -9 11 C-9 8 -9 8 -7.5390625 6.2109375 C-6.90742187 5.60507813 -6.27578125 4.99921875 -5.625 4.375 C-4.68527344 3.45847656 -4.68527344 3.45847656 -3.7265625 2.5234375 C-2 1 -2 1 0 0 Z " fill="#F7CE51" transform="translate(673,232)"/>
<path d="M0 0 C5.47361889 0.5439085 9.58317001 2.55393801 14.375 5.0625 C15.11105469 5.43955078 15.84710937 5.81660156 16.60546875 6.20507812 C18.40739646 7.12944364 20.20423099 8.06372614 22 9 C21.01 9.495 21.01 9.495 20 10 C18.265625 9.29296875 18.265625 9.29296875 16.25 8.1875 C12.89601449 6.41969536 9.60920693 5.1769153 6 4 C3.98529902 3.02995879 1.98077953 2.03755118 0 1 C0 0.67 0 0.34 0 0 Z " fill="#EED964" transform="translate(570,247)"/>
<path d="M0 0 C0.33 1.32 0.66 2.64 1 4 C0.01 4.33 -0.98 4.66 -2 5 C-2.88082622 7.71318044 -3.57876229 10.28883517 -4.1875 13.0625 C-4.36474609 13.82111328 -4.54199219 14.57972656 -4.72460938 15.36132812 C-5.16136967 17.23821697 -5.58219156 19.1188016 -6 21 C-6.33 21 -6.66 21 -7 21 C-7.68790946 13.0890412 -4.94427173 6.16263095 0 0 Z " fill="#EED75F" transform="translate(592,693)"/>
<path d="M0 0 C0.68707555 2.49064888 1 4.37886292 1 7 C0.34 7 -0.32 7 -1 7 C-0.67 8.98 -0.34 10.96 0 13 C-0.66 13 -1.32 13 -2 13 C-2.66 14.32 -3.32 15.64 -4 17 C-3.58411954 10.80481527 -2.39748106 5.73310689 0 0 Z " fill="#EACE59" transform="translate(339,361)"/>
<path d="M0 0 C10.55808656 1.74259681 10.55808656 1.74259681 15 5 C14.01 5.33 13.02 5.66 12 6 C11.01 5.34 10.02 4.68 9 4 C6.49103314 3.54398739 6.49103314 3.54398739 3.8125 3.375 C2.91144531 3.30023437 2.01039063 3.22546875 1.08203125 3.1484375 C0.39496094 3.09945312 -0.29210937 3.05046875 -1 3 C-0.67 2.01 -0.34 1.02 0 0 Z " fill="#EDCD56" transform="translate(797,678)"/>
<path d="M0 0 C0.33 0.99 0.66 1.98 1 3 C-0.65 4.65 -2.3 6.3 -4 8 C-4 7.01 -4 6.02 -4 5 C-4.99 5.99 -5.98 6.98 -7 8 C-7.66 7.67 -8.32 7.34 -9 7 C-8.06894211 6.01470572 -7.12987519 5.03697556 -6.1875 4.0625 C-5.66542969 3.51722656 -5.14335937 2.97195313 -4.60546875 2.41015625 C-3 1 -3 1 0 0 Z " fill="#F9E061" transform="translate(312,478)"/>
<path d="M0 0 C0.99 0.66 1.98 1.32 3 2 C-1.30769231 5.93846154 -1.30769231 5.93846154 -4.8125 6.25 C-5.534375 6.1675 -6.25625 6.085 -7 6 C-7 5.34 -7 4.68 -7 4 C-4.69 2.68 -2.38 1.36 0 0 Z " fill="#151823" transform="translate(598,562)"/>
<path d="M0 0 C3.55122081 1.42048832 4.40061029 2.61305708 6 6 C7.59643578 8.06776444 9.29138559 10.02160437 11 12 C7.612801 10.5611898 5.6405896 8.77880501 3.25 6 C2.63640625 5.29875 2.0228125 4.5975 1.390625 3.875 C0 2 0 2 0 0 Z " fill="#F6DE64" transform="translate(106,744)"/>
<path d="M0 0 C0.66 0 1.32 0 2 0 C2.8125 2.125 2.8125 2.125 3 5 C1.55576519 7.30107561 -0.10872135 9.01646386 -2 11 C-2.66 10.67 -3.32 10.34 -4 10 C-3.525625 9.46375 -3.05125 8.9275 -2.5625 8.375 C-0.71813924 5.57157164 -0.37543153 3.30379742 0 0 Z " fill="#F3D45A" transform="translate(806,734)"/>
<path d="M0 0 C0 0.66 0 1.32 0 2 C1.98 2 3.96 2 6 2 C6 2.33 6 2.66 6 3 C-4.55808656 3.18451025 -4.55808656 3.18451025 -9 2 C-9 1.67 -9 1.34 -9 1 C-5.94152152 0.45627049 -3.11227195 0 0 0 Z " fill="#F9E064" transform="translate(319,559)"/>
<path d="M0 0 C4.95 0 9.9 0 15 0 C15.33 0.99 15.66 1.98 16 3 C15.01 3 14.02 3 13 3 C13 2.34 13 1.68 13 1 C8.71 1 4.42 1 0 1 C0 0.67 0 0.34 0 0 Z " fill="#151D2B" transform="translate(131,674)"/>
<path d="M0 0 C0.66 0.99 1.32 1.98 2 3 C0.02 3.33 -1.96 3.66 -4 4 C-4 4.66 -4 5.32 -4 6 C-4.66 5.67 -5.32 5.34 -6 5 C-6 4.34 -6 3.68 -6 3 C-4.02 2.01 -2.04 1.02 0 0 Z " fill="#1D1E1F" transform="translate(581,491)"/>
<path d="M0 0 C0 3.34419152 -0.47519394 4.06840321 -2.375 6.6875 C-2.81585937 7.31011719 -3.25671875 7.93273437 -3.7109375 8.57421875 C-4.13632812 9.04472656 -4.56171875 9.51523437 -5 10 C-5.66 10 -6.32 10 -7 10 C-5.33248852 6.05860922 -2.77289351 3.2107188 0 0 Z " fill="#F8DC61" transform="translate(714,368)"/>
<path d="M0 0 C0.66 0.33 1.32 0.66 2 1 C0.875 2.9375 0.875 2.9375 -1 5 C-4.1875 5.75 -4.1875 5.75 -7 6 C-4.74259377 3.66475218 -2.7194239 1.81294927 0 0 Z " fill="#F9DC5E" transform="translate(643,428)"/>
<path d="M0 0 C1.258125 -0.020625 2.51625 -0.04125 3.8125 -0.0625 C4.52019531 -0.07410156 5.22789062 -0.08570313 5.95703125 -0.09765625 C8 0 8 0 11 1 C11 1.66 11 2.32 11 3 C9.35 3 7.7 3 6 3 C6 2.34 6 1.68 6 1 C4.02 1 2.04 1 0 1 C0 0.67 0 0.34 0 0 Z " fill="#252328" transform="translate(490,260)"/>
</svg>
